<svg xmlns="http://www.w3.org/2000/svg" viewBox="0 0 376 200" fill="#171717" role="img" aria-label="Grilla">
  <path d="M 30.21 178.95 C 31.70 177.88 33.55 177.00 34.32 177.00 C 35.10 177.00 36.87 176.10 38.27 175.00 C 39.67 173.90 41.59 173.00 42.53 173.00 C 43.47 173.00 47.98 169.36 52.54 164.91 C 59.57 158.04 61.60 155.27 65.89 146.63 C 69.28 139.81 71.46 133.80 72.48 128.47 C 73.32 124.09 74.43 118.47 74.96 116.00 C 75.48 113.53 75.94 105.13 75.97 97.34 C 76.03 84.37 75.84 82.81 73.72 78.84 C 70.63 73.05 67.77 68.66 66.52 67.77 C 64.34 66.20 56.30 66.98 53.73 69.00 C 52.33 70.10 50.53 71.00 49.73 71.00 C 47.92 71.00 37.89 78.29 33.09 83.09 C 22.84 93.33 18.75 101.06 18.72 110.23 C 18.71 115.81 19.15 117.62 21.29 120.86 C 25.15 126.69 29.97 129.30 35.77 128.69 C 46.00 127.61 47.25 127.31 48.16 125.69 C 48.67 124.76 50.15 124.00 51.43 124.00 C 52.71 124.00 54.32 123.33 55.00 122.50 C 55.68 121.67 56.90 121.00 57.71 121.00 C 62.24 121.00 51.96 144.98 43.67 153.75 C 40.94 156.64 38.09 159.00 37.33 159.00 C 36.58 159.00 34.00 160.80 31.62 163.00 C 29.23 165.20 26.64 167.00 25.86 167.00 C 23.36 167.00 20.03 170.02 17.88 174.23 L 15.79 178.33 L 18.14 180.18 C 20.98 182.41 26.12 181.89 30.21 178.95 Z M 349.54 140.07 C 351.97 137.83 354.37 136.00 354.87 136.00 C 356.22 136.00 357.11 133.29 358.17 126.00 C 359.90 114.14 360.28 100.21 358.96 96.74 C 357.89 93.92 356.49 86.89 355.72 80.50 C 354.93 73.93 346.31 63.00 341.92 63.00 C 340.81 63.00 338.57 62.31 336.95 61.47 C 334.31 60.11 333.69 60.11 331.05 61.47 C 329.43 62.31 326.34 63.00 324.18 63.00 C 321.78 63.00 319.29 63.77 317.73 65.00 C 316.33 66.10 314.57 67.00 313.81 67.00 C 311.40 67.00 308.03 70.02 305.99 74.03 C 303.53 78.84 303.50 78.44 306.53 80.43 C 308.74 81.87 309.86 81.94 315.28 80.90 C 318.70 80.25 322.18 79.20 323.00 78.57 C 325.85 76.38 331.46 75.09 334.95 75.83 C 337.99 76.47 338.67 77.24 340.66 82.17 C 343.35 88.88 344.66 100.50 342.95 102.56 C 342.12 103.56 341.27 103.68 339.96 102.98 C 338.95 102.44 337.19 102.00 336.03 102.00 C 334.88 102.00 332.93 101.38 331.71 100.62 C 326.17 97.16 309.91 98.16 303.61 102.35 C 298.44 105.78 296.00 110.35 296.00 116.61 C 296.00 121.73 296.30 122.40 300.54 126.93 C 305.44 132.18 321.44 141.03 326.00 141.02 C 327.38 141.02 329.85 141.94 331.50 143.07 C 333.91 144.71 335.55 145.02 339.82 144.63 C 344.30 144.21 345.83 143.49 349.54 140.07 Z M 211.08 139.08 C 213.15 137.00 214.00 135.18 214.00 132.78 C 214.00 130.92 214.45 128.95 214.99 128.41 C 215.54 127.86 216.21 125.41 216.49 122.96 C 216.77 120.51 217.46 115.80 218.04 112.50 C 218.61 109.20 219.51 103.80 220.03 100.50 C 220.55 97.20 221.45 91.80 222.03 88.50 C 222.61 85.20 223.51 79.80 224.03 76.50 C 224.55 73.20 225.46 67.80 226.03 64.50 C 226.61 61.20 227.92 52.42 228.94 45.00 C 229.96 37.58 231.24 29.85 231.77 27.83 C 233.59 21.03 231.02 15.00 226.30 15.00 C 223.43 15.00 219.00 19.15 219.00 21.83 C 219.00 22.89 218.39 25.27 217.64 27.13 C 216.89 28.98 215.73 35.90 215.05 42.50 C 214.37 49.10 213.41 54.99 212.91 55.60 C 212.41 56.20 211.80 58.90 211.54 61.60 C 210.33 74.36 209.71 78.59 208.89 79.60 C 208.40 80.20 207.80 82.90 207.54 85.60 C 206.33 98.36 205.71 102.59 204.89 103.60 C 204.40 104.20 203.78 106.68 203.51 109.10 C 202.80 115.35 201.32 123.88 200.20 128.17 C 198.98 132.86 199.71 136.90 202.30 139.75 C 205.05 142.78 207.57 142.58 211.08 139.08 Z M 256.46 140.84 C 259.61 139.40 261.26 134.10 264.04 116.50 C 264.56 113.20 265.45 107.80 266.03 104.50 C 266.61 101.20 267.51 95.80 268.03 92.50 C 268.55 89.20 269.45 83.80 270.03 80.50 C 270.61 77.20 271.51 71.80 272.03 68.50 C 272.55 65.20 273.46 59.80 274.03 56.50 C 274.61 53.20 275.75 45.10 276.56 38.50 C 277.38 31.90 278.48 25.46 279.03 24.19 C 279.83 22.32 279.52 21.23 277.39 18.44 C 270.94 9.98 265.58 16.89 263.00 37.00 C 262.40 41.67 261.51 47.08 261.03 49.00 C 260.55 50.92 259.65 56.33 259.03 61.00 C 258.41 65.67 257.51 71.08 257.03 73.00 C 256.55 74.92 255.65 80.33 255.03 85.00 C 254.41 89.67 253.51 95.08 253.02 97.00 C 252.53 98.92 251.58 104.55 250.91 109.50 C 250.24 114.45 249.26 119.05 248.74 119.73 C 247.17 121.76 246.57 138.77 248.00 140.51 C 249.49 142.30 252.96 142.43 256.46 140.84 Z M 173.41 136.86 C 175.93 135.71 176.19 134.94 178.49 122.00 C 178.83 120.08 179.52 114.90 180.01 110.50 C 180.51 106.10 181.41 99.80 182.01 96.50 C 182.61 93.20 183.54 86.46 184.07 81.51 C 184.94 73.40 184.86 72.29 183.17 70.01 C 180.15 65.95 176.62 66.19 173.58 70.67 C 172.16 72.76 171.00 75.65 171.00 77.11 C 171.00 78.57 170.39 81.27 169.64 83.13 C 168.89 84.98 167.71 92.12 167.02 99.00 C 166.33 105.88 165.43 112.17 165.02 113.00 C 164.61 113.83 163.99 118.40 163.64 123.17 C 163.03 131.49 163.11 131.97 165.59 134.92 C 168.42 138.28 169.63 138.58 173.41 136.86 Z M 100.45 133.89 C 103.66 131.69 109.00 122.02 109.00 118.42 C 109.00 115.36 122.32 89.32 126.61 84.00 C 131.66 77.74 140.64 68.98 143.03 67.99 C 144.92 67.21 146.30 65.63 147.03 63.41 C 149.52 55.85 145.37 53.43 136.28 57.15 C 131.97 58.91 128.33 61.66 121.76 68.15 C 114.00 75.81 113.00 76.51 113.00 74.27 C 113.00 72.88 113.96 70.18 115.13 68.28 C 117.25 64.86 117.25 64.81 115.33 62.24 C 112.32 58.21 110.63 57.49 107.37 58.86 C 104.32 60.13 99.00 69.53 99.00 73.63 C 99.00 74.80 98.37 77.27 97.61 79.13 C 94.70 86.15 91.25 110.07 91.08 124.30 C 91.01 130.42 91.26 131.34 93.65 133.55 C 96.84 136.51 96.64 136.50 100.45 133.89 Z M 328.50 127.00 C 324.65 124.88 320.35 123.11 318.94 123.07 C 317.48 123.03 315.17 121.74 313.60 120.10 C 311.18 117.58 310.97 116.92 312.02 114.96 C 313.16 112.83 313.62 112.75 321.66 113.37 C 326.78 113.76 331.16 114.68 332.80 115.69 C 337.31 118.48 342.00 123.29 342.00 125.12 C 342.00 126.71 337.55 131.10 336.12 130.93 C 335.78 130.89 332.35 129.12 328.50 127.00 Z M 34.20 113.80 C 32.04 111.64 32.94 107.58 36.94 101.49 C 41.88 93.96 55.43 82.00 59.01 82.00 C 60.54 82.00 59.58 91.46 57.77 94.26 C 56.97 95.49 55.98 97.85 55.58 99.49 C 55.17 101.14 54.19 103.16 53.40 103.99 C 52.61 104.82 51.03 106.74 49.91 108.25 C 48.78 109.76 47.05 111.00 46.06 111.00 C 45.08 111.00 43.13 111.90 41.73 113.00 C 38.85 115.26 35.97 115.57 34.20 113.80 Z M 181.54 58.38 C 183.30 57.23 184.00 55.87 184.00 53.58 C 184.00 49.53 182.44 48.00 178.33 48.00 C 175.69 48.00 174.74 48.59 173.48 51.03 C 171.96 53.98 172.00 54.15 174.88 57.03 C 178.34 60.49 178.32 60.49 181.54 58.38 Z"/>
</svg>